<svg xmlns="http://www.w3.org/2000/svg" viewBox="0 0 1200 800" role="img" aria-label="BoundPro dashboard showing inventory stats, recent ledger entries, and compliance alerts" fill="none" font-family="Inter, system-ui, sans-serif">
  <title>BoundPro dashboard</title>
  <defs>
    <filter id="cardShadow" x="-2%" y="-5%" width="104%" height="115%">
      <feDropShadow dx="0" dy="1" stdDeviation="2" flood-color="#0f172a" flood-opacity="0.06"/>
    </filter>
    <linearGradient id="trendArea" x1="0" y1="0" x2="0" y2="1">
      <stop offset="0%" stop-color="#d97706" stop-opacity="0.28"/>
      <stop offset="100%" stop-color="#d97706" stop-opacity="0"/>
    </linearGradient>
  </defs>

  <!-- Page background -->
  <rect width="1200" height="800" fill="#f8fafc"/>

  <!-- ============ SIDEBAR ============ -->
  <rect x="0" y="0" width="216" height="800" fill="#0f1d33"/>

  <!-- Sidebar logo -->
  <g transform="translate(20,20)">
    <rect width="22" height="24" rx="3" fill="#18283f"/>
    <rect width="3" height="24" fill="#d97706"/>
    <rect x="7" y="6" width="11" height="1.4" rx="0.7" fill="#94a3b8"/>
    <rect x="7" y="10" width="8" height="1.4" rx="0.7" fill="#94a3b8"/>
    <rect x="7" y="14" width="11" height="1.4" rx="0.7" fill="#94a3b8"/>
    <text x="32" y="18" fill="#ffffff" font-size="15" font-weight="700" letter-spacing="-0.01em">BoundPro</text>
  </g>

  <!-- Workspace selector -->
  <g transform="translate(16,64)">
    <rect width="184" height="44" rx="8" fill="#ffffff" fill-opacity="0.06"/>
    <rect x="10" y="10" width="24" height="24" rx="6" fill="#d97706"/>
    <text x="22" y="26" text-anchor="middle" fill="#ffffff" font-size="10" font-weight="700">RA</text>
    <text x="40" y="20" fill="#ffffff" font-size="12" font-weight="600">Ridgeline Arms</text>
    <text x="40" y="34" fill="#94a3b8" font-size="10">3 FFLs · SOT Class III</text>
    <path d="M165 18 l5 5 5 -5 M165 28 l5 -5 5 5" stroke="#94a3b8" stroke-width="1.4" stroke-linecap="round" fill="none"/>
  </g>

  <!-- Sidebar section label -->
  <text x="24" y="132" fill="#64748b" font-size="10" font-weight="700" letter-spacing="0.08em">WORKSPACE</text>

  <!-- Nav items (icons ~14–36px, labels start 52px so strokes never crowd text) -->
  <g font-size="13">
    <!-- Dashboard (ACTIVE) -->
    <g transform="translate(8,148)">
      <rect width="200" height="34" rx="8" fill="#ffffff" fill-opacity="0.09"/>
      <rect width="3" height="34" rx="1.5" fill="#d97706"/>
      <path d="M18 22 l8 -7 8 7 v8 a1 1 0 0 1 -1 1 h-14 a1 1 0 0 1 -1 -1 z" stroke="#ffffff" stroke-width="1.5" stroke-linejoin="round"/>
      <text x="52" y="22" fill="#ffffff" font-weight="600">Dashboard</text>
    </g>

    <!-- Ledger -->
    <g transform="translate(8,186)">
      <path d="M18 16 h12 a1 1 0 0 1 1 1 v12 a1 1 0 0 1 -1 1 h-12 a1 1 0 0 1 -1 -1 v-12 a1 1 0 0 1 1 -1 z M21 20 h7 M21 23 h7 M21 26 h5" stroke="#94a3b8" stroke-width="1.4" stroke-linecap="round"/>
      <text x="52" y="22" fill="#cbd5e1">A&amp;D Ledger</text>
      <text x="192" y="22" fill="#94a3b8" font-size="11" text-anchor="end">1,247</text>
    </g>

    <!-- 4473s -->
    <g transform="translate(8,220)">
      <path d="M18 16 h10 l3 3 v11 a1 1 0 0 1 -1 1 h-12 a1 1 0 0 1 -1 -1 v-13 a1 1 0 0 1 1 -1 z M21 22 h7 M21 25 h7 M21 28 h5" stroke="#94a3b8" stroke-width="1.4" stroke-linecap="round"/>
      <text x="52" y="22" fill="#cbd5e1">Form 4473s</text>
      <rect x="150" y="7" width="44" height="22" rx="8" fill="#d97706"/>
      <text x="172" y="18" fill="#ffffff" font-size="10" font-weight="700" text-anchor="middle" dominant-baseline="middle" letter-spacing="0.04em">3 NEW</text>
    </g>

    <!-- Transfers -->
    <g transform="translate(8,254)">
      <path d="M18 19 h13 m-3 -3 l3 3 -3 3 M31 27 h-13 m3 -3 l-3 3 3 3" stroke="#94a3b8" stroke-width="1.4" stroke-linecap="round" stroke-linejoin="round"/>
      <text x="52" y="22" fill="#cbd5e1">Transfers</text>
    </g>

    <!-- NFA -->
    <g transform="translate(8,288)">
      <path d="M24 14 l8 4 v6 c0 4 -3 7 -8 8 -5 -1 -8 -4 -8 -8 v-6 z" stroke="#94a3b8" stroke-width="1.4" stroke-linejoin="round"/>
      <text x="52" y="22" fill="#cbd5e1">NFA Registry</text>
    </g>

    <!-- Pawn -->
    <g transform="translate(8,322)">
      <path d="M18 22 a6 6 0 1 0 12 0 a6 6 0 1 0 -12 0 M24 18 v8 M21 21 h6" stroke="#94a3b8" stroke-width="1.4" stroke-linejoin="round"/>
      <text x="52" y="22" fill="#cbd5e1">Pawn</text>
    </g>

    <!-- Compliance -->
    <g transform="translate(8,356)">
      <path d="M24 14 l8 3 v7 c0 5 -4 8 -8 9 -4 -1 -8 -4 -8 -9 v-7 z M21 22 l3 3 5 -6" stroke="#94a3b8" stroke-width="1.4" stroke-linejoin="round" fill="none"/>
      <text x="52" y="22" fill="#cbd5e1">Compliance</text>
      <circle cx="188" cy="17" r="4" fill="#e11d48"/>
      <text x="188" y="20" fill="#ffffff" font-size="9" font-weight="700" text-anchor="middle">1</text>
    </g>

    <!-- Reports -->
    <g transform="translate(8,390)">
      <path d="M18 28 v-6 M23 28 v-10 M28 28 v-7 M33 28 v-12" stroke="#94a3b8" stroke-width="1.6" stroke-linecap="round"/>
      <text x="52" y="22" fill="#cbd5e1">Reports</text>
    </g>

    <!-- Audit Log -->
    <g transform="translate(8,424)">
      <path d="M18 18 h14 M18 22 h14 M18 26 h10" stroke="#94a3b8" stroke-width="1.4" stroke-linecap="round"/>
      <text x="52" y="22" fill="#cbd5e1">Audit Log</text>
    </g>
  </g>

  <!-- Sidebar section divider -->
  <line x1="16" y1="468" x2="200" y2="468" stroke="#1c2c44" stroke-width="1"/>
  <text x="24" y="488" fill="#64748b" font-size="10" font-weight="700" letter-spacing="0.08em">ACCOUNT</text>

  <g font-size="13">
    <g transform="translate(8,500)">
      <path d="M24 23 a4 4 0 1 0 0 -8 a4 4 0 1 0 0 8 M16 31 c1 -3 4 -5 8 -5 s7 2 8 5" stroke="#94a3b8" stroke-width="1.4" stroke-linecap="round" fill="none"/>
      <text x="52" y="22" fill="#cbd5e1">Settings</text>
    </g>
    <g transform="translate(8,534)">
      <path d="M18 22 a6 6 0 1 0 12 0 a6 6 0 1 0 -12 0 M24 19 v0.1 M24 22 v3" stroke="#94a3b8" stroke-width="1.4" stroke-linecap="round" fill="none"/>
      <text x="52" y="22" fill="#cbd5e1">Help &amp; docs</text>
    </g>
  </g>

  <!-- User card at bottom of sidebar -->
  <g transform="translate(16,732)">
    <rect width="184" height="48" rx="8" fill="#ffffff" fill-opacity="0.06"/>
    <circle cx="24" cy="24" r="14" fill="#0a1628"/>
    <text x="24" y="28" text-anchor="middle" fill="#ffffff" font-size="11" font-weight="700">AT</text>
    <text x="46" y="22" fill="#ffffff" font-size="12" font-weight="600">Alex Thompson</text>
    <text x="46" y="35" fill="#94a3b8" font-size="10.5">Owner · alex@ridgeline...</text>
    <path d="M165 24 l5 -5 m-5 5 l5 5" stroke="#94a3b8" stroke-width="1.4" stroke-linecap="round"/>
  </g>

  <!-- ============ TOP BAR ============ -->
  <rect x="216" y="0" width="984" height="56" fill="#ffffff"/>
  <line x1="216" y1="56" x2="1200" y2="56" stroke="#e2e8f0"/>

  <!-- Page title in topbar -->
  <text x="248" y="26" fill="#0f172a" font-size="14" font-weight="600">Dashboard</text>
  <text x="248" y="42" fill="#64748b" font-size="11.5">Welcome back, Alex · Ridgeline Arms LLC</text>

  <!-- Search bar -->
  <g transform="translate(640,14)">
    <rect width="280" height="32" rx="8" fill="#f1f5f9"/>
    <path d="M14 16 a4 4 0 1 0 8 0 a4 4 0 1 0 -8 0 M21 23 l4 4" stroke="#64748b" stroke-width="1.4" stroke-linecap="round" fill="none"/>
    <text x="34" y="20" fill="#94a3b8" font-size="12">Search serial, buyer, 4473&#8230;</text>
    <rect x="234" y="6" width="38" height="20" rx="4" fill="#e2e8f0"/>
    <text x="253" y="20" text-anchor="middle" fill="#475569" font-size="10.5" font-weight="600">⌘ K</text>
  </g>

  <!-- Top right buttons -->
  <g transform="translate(940,14)">
    <rect width="36" height="32" rx="8" fill="#f1f5f9"/>
    <!-- Bell (Lucide-style paths, 24×24 scaled into button) -->
    <g transform="translate(6,5)" stroke="#475569" stroke-width="1.5" stroke-linecap="round" stroke-linejoin="round">
      <path fill="none" d="M10.268 21a2 2 0 0 0 3.464 0"/>
      <path fill="none" d="M3.262 15.326A1 1 0 0 0 4 17h16a1 1 0 0 0 .74-1.673C19.41 13.956 18 12.499 18 8A6 6 0 0 0 6 8c0 4.499-1.411 5.956-2.74 7.673"/>
    </g>
    <circle cx="26" cy="8" r="4" fill="#e11d48"/>
    <text x="26" y="11" text-anchor="middle" fill="#ffffff" font-size="8" font-weight="700">2</text>
  </g>
  <g transform="translate(984,14)">
    <rect width="158" height="32" rx="8" fill="#0a1628"/>
    <path d="M16 16 v8 M12 20 h8" stroke="#ffffff" stroke-width="1.6" stroke-linecap="round"/>
    <text x="32" y="20" fill="#ffffff" font-size="12" font-weight="600">New acquisition</text>
  </g>

  <!-- ============ MAIN CONTENT ============ -->
  <g transform="translate(248,80)">

    <!-- Page header -->
    <text x="0" y="22" fill="#0f172a" font-size="22" font-weight="700" letter-spacing="-0.02em">Welcome back, Alex</text>
    <text x="0" y="44" fill="#64748b" font-size="13">Summary of your bound books, ledger entries, and open compliance items.</text>

    <!-- FFL expiry warning -->
    <g transform="translate(0,68)">
      <rect width="912" height="56" rx="10" fill="#fffbeb" stroke="#fde68a"/>
      <path d="M28 34 l-12 -20 -12 20 z M16 22 v6 M16 30 v0.1" transform="translate(8,4)" stroke="#b45309" stroke-width="1.6" stroke-linecap="round" fill="none"/>
      <text x="44" y="26" fill="#78350f" font-size="13" font-weight="600">1 FFL license is expiring soon</text>
      <text x="44" y="42" fill="#92400e" font-size="11.5" font-family="JetBrains Mono, monospace">5-12-345-67-8X-90123  expires in 47 days</text>
      <rect x="828" y="14" width="68" height="28" rx="6" fill="#ffffff" stroke="#fcd34d"/>
      <text x="862" y="32" text-anchor="middle" fill="#78350f" font-size="11.5" font-weight="600">Manage</text>
    </g>

    <!-- Stat cards -->
    <g transform="translate(0,144)">
      <!-- Card 1 -->
      <g>
        <rect width="222" height="118" rx="10" fill="#ffffff" stroke="#e2e8f0" filter="url(#cardShadow)"/>
        <rect x="14" y="14" width="32" height="32" rx="8" fill="#f1f5f9"/>
        <path d="M22 26 h12 v8 l-6 2 -6 -2 z M26 22 v4 M30 22 v4" transform="translate(4,4)" stroke="#0f1d33" stroke-width="1.4" stroke-linecap="round" fill="none"/>
        <text x="14" y="66" fill="#64748b" font-size="11.5" font-weight="500">Inventory on hand</text>
        <text x="14" y="88" fill="#0f172a" font-size="22" font-weight="700" letter-spacing="-0.02em" font-family="JetBrains Mono, monospace">1,247</text>
        <text x="14" y="106" fill="#64748b" font-size="11" font-weight="500">firearms</text>
      </g>

      <!-- Card 2 -->
      <g transform="translate(230,0)">
        <rect width="222" height="118" rx="10" fill="#ffffff" stroke="#e2e8f0" filter="url(#cardShadow)"/>
        <rect x="14" y="14" width="32" height="32" rx="8" fill="#ecfdf5"/>
        <path d="M30 18 v12 m-5 -5 l5 5 5 -5" stroke="#047857" stroke-width="1.6" stroke-linecap="round" stroke-linejoin="round" fill="none"/>
        <text x="14" y="66" fill="#64748b" font-size="11.5" font-weight="500">4473s YTD</text>
        <text x="14" y="88" fill="#0f172a" font-size="22" font-weight="700" letter-spacing="-0.02em" font-family="JetBrains Mono, monospace">423</text>
        <g transform="translate(58,76)">
          <rect width="48" height="18" rx="5" fill="#ecfdf5"/>
          <path d="M9 11 l2 -3 3 1 4 -4" stroke="#047857" stroke-width="1.4" stroke-linecap="round" fill="none"/>
          <text x="40" y="12.5" text-anchor="end" fill="#047857" font-size="10.5" font-weight="700">+18%</text>
        </g>
      </g>

      <!-- Card 3 -->
      <g transform="translate(460,0)">
        <rect width="222" height="118" rx="10" fill="#ffffff" stroke="#e2e8f0" filter="url(#cardShadow)"/>
        <rect x="14" y="14" width="32" height="32" rx="8" fill="#fffbeb"/>
        <path d="M30 18 a8 8 0 1 0 8 8 M30 22 v6 l4 2" stroke="#b45309" stroke-width="1.6" stroke-linecap="round" fill="none"/>
        <text x="14" y="66" fill="#64748b" font-size="11.5" font-weight="500">NICS pending</text>
        <text x="14" y="88" fill="#0f172a" font-size="22" font-weight="700" letter-spacing="-0.02em" font-family="JetBrains Mono, monospace">3</text>
        <text x="14" y="106" fill="#b45309" font-size="10.5" font-weight="600">1 over 3 bus. days</text>
      </g>

      <!-- Card 4 -->
      <g transform="translate(690,0)">
        <rect width="222" height="118" rx="10" fill="#ffffff" stroke="#e2e8f0" filter="url(#cardShadow)"/>
        <rect x="14" y="14" width="32" height="32" rx="8" fill="#fff1f2"/>
        <path d="M30 18 l8 4 v6 c0 4 -3 7 -8 8 -5 -1 -8 -4 -8 -8 v-6 z M27 26 l2 2 4 -5" stroke="#be123c" stroke-width="1.6" stroke-linecap="round" stroke-linejoin="round" fill="none"/>
        <text x="14" y="66" fill="#64748b" font-size="11.5" font-weight="500">Compliance alerts</text>
        <text x="14" y="88" fill="#0f172a" font-size="22" font-weight="700" letter-spacing="-0.02em" font-family="JetBrains Mono, monospace">1</text>
        <text x="14" y="106" fill="#be123c" font-size="10.5" font-weight="600">Form 3310.4 due</text>
      </g>
    </g>

    <!-- Recent ledger card -->
    <g transform="translate(0,286)">
      <rect width="600" height="372" rx="10" fill="#ffffff" stroke="#e2e8f0" filter="url(#cardShadow)"/>

      <!-- Card header -->
      <text x="20" y="32" fill="#0f172a" font-size="13" font-weight="600">Recent ledger entries</text>
      <text x="20" y="48" fill="#64748b" font-size="11">Last 6 acquisitions and dispositions</text>
      <g transform="translate(530,18)">
        <rect width="54" height="22" rx="6" fill="#f1f5f9"/>
        <text x="27" y="15.5" text-anchor="middle" fill="#334155" font-size="11" font-weight="600">View all ’</text>
      </g>

      <line x1="0" y1="60" x2="600" y2="60" stroke="#e2e8f0"/>

      <!-- Table header -->
      <g font-size="9.5" fill="#64748b" font-weight="700" letter-spacing="0.06em">
        <text x="20" y="78">DATE</text>
        <text x="76" y="78">FIREARM</text>
        <text x="380" y="78">SERIAL</text>
        <text x="580" y="78" text-anchor="end">STATUS</text>
      </g>
      <line x1="0" y1="86" x2="600" y2="86" stroke="#f1f5f9"/>

      <!-- Row 1 -->
      <g transform="translate(0,86)">
        <text x="20" y="22" fill="#64748b" font-size="11" font-family="JetBrains Mono, monospace">Mar 02</text>
        <text x="76" y="20" fill="#0f172a" font-size="12.5" font-weight="600">Glock 19 Gen5</text>
        <text x="76" y="34" fill="#64748b" font-size="10.5">9mm · pistol · Lipsey's</text>
        <text x="380" y="26" fill="#475569" font-size="11" font-family="JetBrains Mono, monospace">BPSE423</text>
        <g transform="translate(516,14)">
          <rect width="68" height="22" rx="6" fill="#ecfdf5"/>
          <text x="34" y="15.5" text-anchor="middle" fill="#047857" font-size="10.5" font-weight="600">In stock</text>
        </g>
        <line x1="0" y1="46" x2="600" y2="46" stroke="#f1f5f9"/>
      </g>

      <!-- Row 2 -->
      <g transform="translate(0,132)">
        <text x="20" y="22" fill="#64748b" font-size="11" font-family="JetBrains Mono, monospace">Mar 01</text>
        <text x="76" y="20" fill="#0f172a" font-size="12.5" font-weight="600">Sig Sauer P365 XL</text>
        <text x="76" y="34" fill="#64748b" font-size="10.5">9mm · pistol · Davidson's</text>
        <text x="380" y="26" fill="#475569" font-size="11" font-family="JetBrains Mono, monospace">66B-298401</text>
        <g transform="translate(516,14)">
          <rect width="68" height="22" rx="6" fill="#f1f5f9"/>
          <text x="34" y="15.5" text-anchor="middle" fill="#475569" font-size="10.5" font-weight="600">Disposed</text>
        </g>
        <line x1="0" y1="46" x2="600" y2="46" stroke="#f1f5f9"/>
      </g>

      <!-- Row 3 -->
      <g transform="translate(0,178)">
        <text x="20" y="22" fill="#64748b" font-size="11" font-family="JetBrains Mono, monospace">Mar 01</text>
        <text x="76" y="20" fill="#0f172a" font-size="12.5" font-weight="600">Daniel Defense DDM4 V7</text>
        <text x="76" y="34" fill="#64748b" font-size="10.5">5.56 NATO · rifle · DD direct</text>
        <text x="380" y="26" fill="#475569" font-size="11" font-family="JetBrains Mono, monospace">DDM4-118872</text>
        <g transform="translate(516,14)">
          <rect width="68" height="22" rx="6" fill="#ecfdf5"/>
          <text x="34" y="15.5" text-anchor="middle" fill="#047857" font-size="10.5" font-weight="600">In stock</text>
        </g>
        <line x1="0" y1="46" x2="600" y2="46" stroke="#f1f5f9"/>
      </g>

      <!-- Row 4 -->
      <g transform="translate(0,224)">
        <text x="20" y="22" fill="#64748b" font-size="11" font-family="JetBrains Mono, monospace">Feb 28</text>
        <text x="76" y="20" fill="#0f172a" font-size="12.5" font-weight="600">SilencerCo Omega 36M</text>
        <text x="76" y="34" fill="#64748b" font-size="10.5">.36 cal · suppressor · NFA</text>
        <text x="380" y="26" fill="#475569" font-size="11" font-family="JetBrains Mono, monospace">OM36M-7194</text>
        <g transform="translate(488,14)">
          <rect width="32" height="18" rx="4" fill="#fef3c7"/>
          <text x="16" y="13.5" text-anchor="middle" fill="#92400e" font-size="9.5" font-weight="700">NFA</text>
        </g>
        <g transform="translate(524,14)">
          <rect width="60" height="22" rx="6" fill="#ecfdf5"/>
          <text x="30" y="15.5" text-anchor="middle" fill="#047857" font-size="10.5" font-weight="600">In stock</text>
        </g>
        <line x1="0" y1="46" x2="600" y2="46" stroke="#f1f5f9"/>
      </g>

      <!-- Row 5 -->
      <g transform="translate(0,270)">
        <text x="20" y="22" fill="#64748b" font-size="11" font-family="JetBrains Mono, monospace">Feb 27</text>
        <text x="76" y="20" fill="#0f172a" font-size="12.5" font-weight="600">Smith &amp; Wesson M&amp;P 15</text>
        <text x="76" y="34" fill="#64748b" font-size="10.5">5.56 NATO · rifle · RSR Group</text>
        <text x="380" y="26" fill="#475569" font-size="11" font-family="JetBrains Mono, monospace">TS81842</text>
        <g transform="translate(516,14)">
          <rect width="68" height="22" rx="6" fill="#ecfdf5"/>
          <text x="34" y="15.5" text-anchor="middle" fill="#047857" font-size="10.5" font-weight="600">In stock</text>
        </g>
        <line x1="0" y1="46" x2="600" y2="46" stroke="#f1f5f9"/>
      </g>

      <!-- Row 6 -->
      <g transform="translate(0,316)">
        <text x="20" y="22" fill="#64748b" font-size="11" font-family="JetBrains Mono, monospace">Feb 26</text>
        <text x="76" y="20" fill="#0f172a" font-size="12.5" font-weight="600">Beretta 92FS</text>
        <text x="76" y="34" fill="#64748b" font-size="10.5">9mm · pistol · trade-in</text>
        <text x="380" y="26" fill="#475569" font-size="11" font-family="JetBrains Mono, monospace">L94782Z</text>
        <g transform="translate(484,14)">
          <rect width="36" height="18" rx="4" fill="#dbeafe"/>
          <text x="18" y="13.5" text-anchor="middle" fill="#1e40af" font-size="9.5" font-weight="700">PAWN</text>
        </g>
        <g transform="translate(524,14)">
          <rect width="60" height="22" rx="6" fill="#ecfdf5"/>
          <text x="30" y="15.5" text-anchor="middle" fill="#047857" font-size="10.5" font-weight="600">In stock</text>
        </g>
      </g>
    </g>

    <!-- Right column: Activity / chart -->
    <g transform="translate(612,286)">
      <!-- Trend mini chart -->
      <rect width="300" height="180" rx="10" fill="#ffffff" stroke="#e2e8f0" filter="url(#cardShadow)"/>
      <text x="20" y="32" fill="#0f172a" font-size="13" font-weight="600">Acquisitions · 30d</text>
      <text x="20" y="48" fill="#64748b" font-size="11">Trailing average +12%</text>
      <text x="280" y="32" text-anchor="end" fill="#0f172a" font-size="22" font-weight="700" letter-spacing="-0.02em" font-family="JetBrains Mono, monospace">87</text>
      <line x1="0" y1="60" x2="300" y2="60" stroke="#f1f5f9"/>

      <!-- chart -->
      <g transform="translate(20,76)">
        <!-- baseline -->
        <line x1="0" y1="86" x2="260" y2="86" stroke="#e2e8f0" stroke-dasharray="2 2"/>
        <line x1="0" y1="60" x2="260" y2="60" stroke="#f1f5f9"/>
        <line x1="0" y1="34" x2="260" y2="34" stroke="#f1f5f9"/>
        <!-- area path -->
        <path d="M0 78 L20 64 L40 70 L60 50 L80 56 L100 38 L120 44 L140 28 L160 36 L180 22 L200 30 L220 16 L240 24 L260 12 L260 86 L0 86 Z" fill="url(#trendArea)"/>
        <path d="M0 78 L20 64 L40 70 L60 50 L80 56 L100 38 L120 44 L140 28 L160 36 L180 22 L200 30 L220 16 L240 24 L260 12" stroke="#d97706" stroke-width="2" fill="none" stroke-linecap="round" stroke-linejoin="round"/>
        <circle cx="260" cy="12" r="3.5" fill="#d97706"/>
        <circle cx="260" cy="12" r="6" fill="#d97706" fill-opacity="0.18"/>
      </g>
    </g>

    <!-- Compliance card -->
    <g transform="translate(612,480)">
      <rect width="300" height="200" rx="10" fill="#ffffff" stroke="#e2e8f0" filter="url(#cardShadow)"/>
      <text x="20" y="32" fill="#0f172a" font-size="13" font-weight="600">Compliance</text>
      <line x1="0" y1="48" x2="300" y2="48" stroke="#f1f5f9"/>

      <!-- 3310.4 alert -->
      <g transform="translate(0,48)">
        <circle cx="32" cy="22" r="6" fill="#fff1f2"/>
        <path d="M32 18 v3 M32 25 v0.1" stroke="#be123c" stroke-width="1.5" stroke-linecap="round"/>
        <text x="48" y="20" fill="#0f172a" font-size="12" font-weight="600">Form 3310.4 due</text>
        <text x="48" y="34" fill="#64748b" font-size="10.5">2 handguns · J. Reyes · window ends today</text>
      </g>

      <line x1="0" y1="98" x2="300" y2="98" stroke="#f1f5f9"/>

      <!-- NICS pending -->
      <g transform="translate(0,98)">
        <circle cx="32" cy="22" r="6" fill="#fffbeb"/>
        <path d="M32 18 v3 M32 25 v0.1" stroke="#b45309" stroke-width="1.5" stroke-linecap="round"/>
        <text x="48" y="20" fill="#0f172a" font-size="12" font-weight="600">3 NICS forms pending</text>
        <text x="48" y="34" fill="#64748b" font-size="10.5">1 over 3 business days · review required</text>
      </g>

      <line x1="0" y1="148" x2="300" y2="148" stroke="#f1f5f9"/>

      <!-- All clear -->
      <g transform="translate(0,148)">
        <circle cx="32" cy="22" r="6" fill="#ecfdf5"/>
        <path d="M28 22 l3 3 5 -6" stroke="#047857" stroke-width="1.6" stroke-linecap="round" stroke-linejoin="round" fill="none"/>
        <text x="48" y="20" fill="#0f172a" font-size="12" font-weight="600">SOT Class III · current</text>
        <text x="48" y="34" fill="#64748b" font-size="10.5">2026 tax stamp on file</text>
      </g>
    </g>

  </g>
</svg>
