<svg xmlns="http://www.w3.org/2000/svg" viewBox="0 0 1200 800" role="img" aria-label="BoundPro reports and analytics with acquisition trends, NICS results donut, firearm type breakdown" fill="none" font-family="Inter, system-ui, sans-serif">
  <title>BoundPro reports and analytics</title>
  <defs>
    <filter id="cardShadow4" x="-2%" y="-5%" width="104%" height="115%">
      <feDropShadow dx="0" dy="1" stdDeviation="2" flood-color="#0f172a" flood-opacity="0.06"/>
    </filter>
    <linearGradient id="acqArea" x1="0" y1="0" x2="0" y2="1">
      <stop offset="0%" stop-color="#d97706" stop-opacity="0.28"/>
      <stop offset="100%" stop-color="#d97706" stop-opacity="0"/>
    </linearGradient>
    <linearGradient id="dispArea" x1="0" y1="0" x2="0" y2="1">
      <stop offset="0%" stop-color="#0a1628" stop-opacity="0.16"/>
      <stop offset="100%" stop-color="#0a1628" stop-opacity="0"/>
    </linearGradient>
  </defs>

  <rect width="1200" height="800" fill="#f8fafc"/>

  <!-- Sidebar -->
  <rect x="0" y="0" width="216" height="800" fill="#0f1d33"/>
  <g transform="translate(20,20)">
    <rect width="22" height="24" rx="3" fill="#18283f"/>
    <rect width="3" height="24" fill="#d97706"/>
    <rect x="7" y="6" width="11" height="1.4" rx="0.7" fill="#94a3b8"/>
    <rect x="7" y="10" width="8" height="1.4" rx="0.7" fill="#94a3b8"/>
    <rect x="7" y="14" width="11" height="1.4" rx="0.7" fill="#94a3b8"/>
    <text x="32" y="18" fill="#ffffff" font-size="15" font-weight="700">BoundPro</text>
  </g>
  <g transform="translate(16,64)">
    <rect width="184" height="44" rx="8" fill="#ffffff" fill-opacity="0.06"/>
    <rect x="10" y="10" width="24" height="24" rx="6" fill="#d97706"/>
    <text x="22" y="26" text-anchor="middle" fill="#ffffff" font-size="10" font-weight="700">RA</text>
    <text x="40" y="20" fill="#ffffff" font-size="12" font-weight="600">Ridgeline Arms</text>
    <text x="40" y="34" fill="#94a3b8" font-size="10">3 FFLs · SOT Class III</text>
  </g>
  <text x="24" y="132" fill="#64748b" font-size="10" font-weight="700" letter-spacing="0.08em">WORKSPACE</text>
  <g font-size="13">
    <g transform="translate(8,148)">
      <path d="M22 22 l8 -7 8 7 v8 a1 1 0 0 1 -1 1 h-14 a1 1 0 0 1 -1 -1 z" stroke="#94a3b8" stroke-width="1.5" stroke-linejoin="round"/>
      <text x="46" y="22" fill="#cbd5e1">Dashboard</text>
    </g>
    <g transform="translate(8,186)">
      <path d="M22 16 h12 a1 1 0 0 1 1 1 v12 a1 1 0 0 1 -1 1 h-12 a1 1 0 0 1 -1 -1 v-12 a1 1 0 0 1 1 -1 z M25 20 h7 M25 23 h7 M25 26 h5" stroke="#94a3b8" stroke-width="1.4" stroke-linecap="round"/>
      <text x="46" y="22" fill="#cbd5e1">A&amp;D Ledger</text>
    </g>
    <g transform="translate(8,220)">
      <path d="M22 16 h10 l3 3 v11 a1 1 0 0 1 -1 1 h-12 a1 1 0 0 1 -1 -1 v-13 a1 1 0 0 1 1 -1 z M25 22 h7 M25 25 h7 M25 28 h5" stroke="#94a3b8" stroke-width="1.4" stroke-linecap="round"/>
      <text x="46" y="22" fill="#cbd5e1">Form 4473s</text>
    </g>
    <g transform="translate(8,254)">
      <path d="M22 19 h13 m-3 -3 l3 3 -3 3 M35 27 h-13 m3 -3 l-3 3 3 3" stroke="#94a3b8" stroke-width="1.4" stroke-linecap="round"/>
      <text x="46" y="22" fill="#cbd5e1">Transfers</text>
    </g>
    <g transform="translate(8,288)">
      <path d="M28 14 l8 4 v6 c0 4 -3 7 -8 8 -5 -1 -8 -4 -8 -8 v-6 z" stroke="#94a3b8" stroke-width="1.4" stroke-linejoin="round"/>
      <text x="46" y="22" fill="#cbd5e1">NFA Registry</text>
    </g>
    <g transform="translate(8,322)">
      <path d="M22 22 a6 6 0 1 0 12 0 a6 6 0 1 0 -12 0 M28 18 v8 M25 21 h6" stroke="#94a3b8" stroke-width="1.4"/>
      <text x="46" y="22" fill="#cbd5e1">Pawn</text>
    </g>
    <g transform="translate(8,356)">
      <path d="M28 14 l8 3 v7 c0 5 -4 8 -8 9 -4 -1 -8 -4 -8 -9 v-7 z M25 22 l3 3 5 -6" stroke="#94a3b8" stroke-width="1.4" stroke-linejoin="round"/>
      <text x="46" y="22" fill="#cbd5e1">Compliance</text>
    </g>
    <!-- Reports ACTIVE -->
    <g transform="translate(8,390)">
      <rect width="200" height="34" rx="8" fill="#ffffff" fill-opacity="0.09"/>
      <rect width="3" height="34" rx="1.5" fill="#d97706"/>
      <path d="M22 28 v-6 M27 28 v-10 M32 28 v-7 M37 28 v-12" stroke="#ffffff" stroke-width="1.6" stroke-linecap="round"/>
      <text x="46" y="22" fill="#ffffff" font-weight="600">Reports</text>
    </g>
    <g transform="translate(8,424)">
      <path d="M22 18 h14 M22 22 h14 M22 26 h10" stroke="#94a3b8" stroke-width="1.4" stroke-linecap="round"/>
      <text x="46" y="22" fill="#cbd5e1">Audit Log</text>
    </g>
  </g>

  <!-- Top bar -->
  <rect x="216" y="0" width="984" height="56" fill="#ffffff"/>
  <line x1="216" y1="56" x2="1200" y2="56" stroke="#e2e8f0"/>
  <text x="248" y="26" fill="#0f172a" font-size="14" font-weight="600">Reports</text>
  <text x="248" y="42" fill="#64748b" font-size="11.5">Analytics for all bound books · Jan 1, 2026  present</text>

  <g transform="translate(896,14)">
    <rect width="120" height="32" rx="8" fill="#ffffff" stroke="#cbd5e1"/>
    <path d="M14 18 h6 M14 14 v8 m-2 -4 h2" stroke="#475569" stroke-width="1.4"/>
    <text x="34" y="20" fill="#0f172a" font-size="12" font-weight="500">YTD 2026</text>
    <path d="M104 18 l4 4 4 -4" stroke="#475569" stroke-width="1.4" fill="none"/>
  </g>
  <g transform="translate(1024,14)">
    <rect width="118" height="32" rx="8" fill="#0a1628"/>
    <path d="M16 16 v8 m-3 -3 l3 3 3 -3" stroke="#ffffff" stroke-width="1.6" stroke-linecap="round"/>
    <text x="34" y="20" fill="#ffffff" font-size="12" font-weight="600">Export PDF</text>
  </g>

  <!-- Main -->
  <g transform="translate(248,80)">

    <text x="0" y="22" fill="#0f172a" font-size="22" font-weight="700" letter-spacing="-0.02em">Reports &amp; analytics</text>
    <text x="0" y="44" fill="#64748b" font-size="13">Year-to-date trends across acquisitions, dispositions, and NICS results.</text>

    <!-- Stat cards row -->
    <g transform="translate(0,68)">
      <!-- Card 1 -->
      <g>
        <rect width="222" height="98" rx="10" fill="#ffffff" stroke="#e2e8f0" filter="url(#cardShadow4)"/>
        <text x="14" y="28" fill="#64748b" font-size="11.5" font-weight="500">Acquisitions YTD</text>
        <text x="14" y="64" fill="#0f172a" font-size="28" font-weight="700" letter-spacing="-0.02em" font-family="JetBrains Mono, monospace">487</text>
        <g transform="translate(122,46)">
          <rect width="60" height="22" rx="6" fill="#ecfdf5"/>
          <path d="M10 14 l3 -4 4 1 5 -5" stroke="#047857" stroke-width="1.4" stroke-linecap="round" fill="none"/>
          <text x="48" y="15.5" text-anchor="end" fill="#047857" font-size="10.5" font-weight="700">+22%</text>
        </g>
        <text x="14" y="84" fill="#94a3b8" font-size="10.5">vs prior year</text>
      </g>

      <!-- Card 2 -->
      <g transform="translate(230,0)">
        <rect width="222" height="98" rx="10" fill="#ffffff" stroke="#e2e8f0" filter="url(#cardShadow4)"/>
        <text x="14" y="28" fill="#64748b" font-size="11.5" font-weight="500">Dispositions YTD</text>
        <text x="14" y="64" fill="#0f172a" font-size="28" font-weight="700" letter-spacing="-0.02em" font-family="JetBrains Mono, monospace">412</text>
        <g transform="translate(122,46)">
          <rect width="60" height="22" rx="6" fill="#ecfdf5"/>
          <path d="M10 14 l3 -4 4 1 5 -5" stroke="#047857" stroke-width="1.4" stroke-linecap="round" fill="none"/>
          <text x="48" y="15.5" text-anchor="end" fill="#047857" font-size="10.5" font-weight="700">+15%</text>
        </g>
        <text x="14" y="84" fill="#94a3b8" font-size="10.5">vs prior year</text>
      </g>

      <!-- Card 3 -->
      <g transform="translate(460,0)">
        <rect width="222" height="98" rx="10" fill="#ffffff" stroke="#e2e8f0" filter="url(#cardShadow4)"/>
        <text x="14" y="28" fill="#64748b" font-size="11.5" font-weight="500">4473s completed</text>
        <text x="14" y="64" fill="#0f172a" font-size="28" font-weight="700" letter-spacing="-0.02em" font-family="JetBrains Mono, monospace">423</text>
        <g transform="translate(122,46)">
          <rect width="80" height="22" rx="6" fill="#fffbeb"/>
          <text x="40" y="15.5" text-anchor="middle" fill="#b45309" font-size="10.5" font-weight="700">avg 4.2 min</text>
        </g>
        <text x="14" y="84" fill="#94a3b8" font-size="10.5">vs paper avg 23 min</text>
      </g>

      <!-- Card 4 -->
      <g transform="translate(690,0)">
        <rect width="222" height="98" rx="10" fill="#ffffff" stroke="#e2e8f0" filter="url(#cardShadow4)"/>
        <text x="14" y="28" fill="#64748b" font-size="11.5" font-weight="500">NICS proceed rate</text>
        <text x="14" y="64" fill="#0f172a" font-size="28" font-weight="700" letter-spacing="-0.02em" font-family="JetBrains Mono, monospace">94.8%</text>
        <g transform="translate(108,46)">
          <rect width="100" height="22" rx="6" fill="#f1f5f9"/>
          <text x="50" y="15.5" text-anchor="middle" fill="#475569" font-size="10.5" font-weight="600">3 denied · 19 delayed</text>
        </g>
        <text x="14" y="84" fill="#94a3b8" font-size="10.5">across 423 forms</text>
      </g>
    </g>

    <!-- LEFT chart: Acquisitions vs Dispositions -->
    <g transform="translate(0,190)">
      <rect width="600" height="288" rx="10" fill="#ffffff" stroke="#e2e8f0" filter="url(#cardShadow4)"/>
      <text x="20" y="32" fill="#0f172a" font-size="14" font-weight="600">Acquisitions vs dispositions</text>
      <text x="20" y="50" fill="#64748b" font-size="11.5">12-month rolling · monthly totals</text>

      <!-- Legend -->
      <g transform="translate(420,24)" font-size="11.5">
        <circle cx="6" cy="8" r="5" fill="#d97706"/>
        <text x="18" y="12" fill="#475569">Acquisitions</text>
        <circle cx="98" cy="8" r="5" fill="#0a1628"/>
        <text x="110" y="12" fill="#475569">Dispositions</text>
      </g>

      <line x1="0" y1="68" x2="600" y2="68" stroke="#f1f5f9"/>

      <!-- Chart area -->
      <g transform="translate(48,84)">
        <!-- Y axis labels -->
        <g font-size="10" fill="#94a3b8" text-anchor="end" font-family="JetBrains Mono, monospace">
          <text x="-10" y="4">60</text>
          <text x="-10" y="44">45</text>
          <text x="-10" y="84">30</text>
          <text x="-10" y="124">15</text>
          <text x="-10" y="164">0</text>
        </g>
        <!-- Grid lines -->
        <line x1="0" y1="0" x2="528" y2="0" stroke="#f1f5f9"/>
        <line x1="0" y1="40" x2="528" y2="40" stroke="#f1f5f9"/>
        <line x1="0" y1="80" x2="528" y2="80" stroke="#f1f5f9"/>
        <line x1="0" y1="120" x2="528" y2="120" stroke="#f1f5f9"/>
        <line x1="0" y1="160" x2="528" y2="160" stroke="#e2e8f0"/>

        <!-- Acquisitions area -->
        <path d="M0 110 L48 96 L96 88 L144 70 L192 84 L240 60 L288 48 L336 64 L384 38 L432 52 L480 30 L528 24 L528 160 L0 160 Z" fill="url(#acqArea)"/>
        <path d="M0 110 L48 96 L96 88 L144 70 L192 84 L240 60 L288 48 L336 64 L384 38 L432 52 L480 30 L528 24" stroke="#d97706" stroke-width="2.4" fill="none" stroke-linecap="round" stroke-linejoin="round"/>

        <!-- Dispositions area (slightly lower) -->
        <path d="M0 124 L48 116 L96 100 L144 88 L192 100 L240 78 L288 70 L336 80 L384 56 L432 70 L480 50 L528 44 L528 160 L0 160 Z" fill="url(#dispArea)"/>
        <path d="M0 124 L48 116 L96 100 L144 88 L192 100 L240 78 L288 70 L336 80 L384 56 L432 70 L480 50 L528 44" stroke="#0a1628" stroke-width="2.4" fill="none" stroke-linecap="round" stroke-linejoin="round"/>

        <!-- Highlight last point -->
        <circle cx="528" cy="24" r="4" fill="#d97706"/>
        <circle cx="528" cy="24" r="8" fill="#d97706" fill-opacity="0.18"/>
        <circle cx="528" cy="44" r="4" fill="#0a1628"/>
        <circle cx="528" cy="44" r="8" fill="#0a1628" fill-opacity="0.12"/>

        <!-- X axis labels -->
        <g font-size="10" fill="#94a3b8" text-anchor="middle" font-family="JetBrains Mono, monospace">
          <text x="0" y="180">Apr</text>
          <text x="48" y="180">May</text>
          <text x="96" y="180">Jun</text>
          <text x="144" y="180">Jul</text>
          <text x="192" y="180">Aug</text>
          <text x="240" y="180">Sep</text>
          <text x="288" y="180">Oct</text>
          <text x="336" y="180">Nov</text>
          <text x="384" y="180">Dec</text>
          <text x="432" y="180">Jan</text>
          <text x="480" y="180">Feb</text>
          <text x="528" y="180">Mar</text>
        </g>
      </g>
    </g>

    <!-- RIGHT TOP: NICS Donut -->
    <g transform="translate(612,190)">
      <rect width="300" height="288" rx="10" fill="#ffffff" stroke="#e2e8f0" filter="url(#cardShadow4)"/>
      <text x="20" y="32" fill="#0f172a" font-size="14" font-weight="600">NICS results</text>
      <text x="20" y="50" fill="#64748b" font-size="11.5">423 forms YTD</text>
      <line x1="0" y1="68" x2="300" y2="68" stroke="#f1f5f9"/>

      <!-- Donut chart at center -->
      <g transform="translate(150,166)">
        <!-- Background ring -->
        <circle r="64" fill="none" stroke="#f1f5f9" stroke-width="22"/>
        <!-- Segments  proceed 94.8%, delayed 4.5%, denied 0.7% -->
        <!-- Proceed (#0a1628) ~94.8% = 0.948 * 360 -->
        <circle r="64" fill="none" stroke="#0a1628" stroke-width="22"
                stroke-dasharray="381.3 21.7" stroke-dashoffset="100.5" transform="rotate(-90)"/>
        <!-- Delayed (#d97706) ~4.5% -->
        <circle r="64" fill="none" stroke="#d97706" stroke-width="22"
                stroke-dasharray="18.1 384.9" stroke-dashoffset="-280.8" transform="rotate(-90)"/>
        <!-- Denied (#e11d48) ~0.7% -->
        <circle r="64" fill="none" stroke="#e11d48" stroke-width="22"
                stroke-dasharray="2.8 400.2" stroke-dashoffset="-298.9" transform="rotate(-90)"/>

        <!-- Center text -->
        <text y="-3" text-anchor="middle" fill="#0f172a" font-size="22" font-weight="700" font-family="JetBrains Mono, monospace">94.8%</text>
        <text y="14" text-anchor="middle" fill="#64748b" font-size="10.5">proceed rate</text>
      </g>

      <!-- Legend -->
      <g transform="translate(20,250)" font-size="11.5">
        <circle cx="6" cy="6" r="5" fill="#0a1628"/>
        <text x="18" y="10" fill="#475569">Proceed · 401</text>
        <circle cx="138" cy="6" r="5" fill="#d97706"/>
        <text x="150" y="10" fill="#475569">Delayed · 19</text>
      </g>
      <g transform="translate(20,272)" font-size="11.5">
        <circle cx="6" cy="6" r="5" fill="#e11d48"/>
        <text x="18" y="10" fill="#475569">Denied · 3</text>
      </g>
    </g>

    <!-- BOTTOM: Firearm types bar chart -->
    <g transform="translate(0,494)">
      <rect width="912" height="186" rx="10" fill="#ffffff" stroke="#e2e8f0" filter="url(#cardShadow4)"/>
      <text x="20" y="30" fill="#0f172a" font-size="14" font-weight="600">Inventory by firearm type</text>
      <text x="20" y="48" fill="#64748b" font-size="11.5">Total in stock · acquisitions in trailing 12 months</text>

      <line x1="0" y1="64" x2="912" y2="64" stroke="#f1f5f9"/>

      <!-- Bars -->
      <g transform="translate(20,82)">
        <!-- Bar group: pistol -->
        <g>
          <text x="0" y="14" fill="#475569" font-size="11.5" font-weight="500">Pistol</text>
          <rect x="80" y="2" width="450" height="16" rx="4" fill="#fef3c7"/>
          <rect x="80" y="2" width="378" height="16" rx="4" fill="#d97706"/>
          <text x="538" y="14" fill="#0f172a" font-size="11.5" font-weight="600" font-family="JetBrains Mono, monospace">472</text>
          <text x="582" y="14" fill="#94a3b8" font-size="11">37.9%</text>
        </g>

        <!-- Rifle -->
        <g transform="translate(0,28)">
          <text x="0" y="14" fill="#475569" font-size="11.5" font-weight="500">Rifle</text>
          <rect x="80" y="2" width="450" height="16" rx="4" fill="#fef3c7"/>
          <rect x="80" y="2" width="296" height="16" rx="4" fill="#d97706"/>
          <text x="538" y="14" fill="#0f172a" font-size="11.5" font-weight="600" font-family="JetBrains Mono, monospace">370</text>
          <text x="582" y="14" fill="#94a3b8" font-size="11">29.7%</text>
        </g>

        <!-- Shotgun -->
        <g transform="translate(0,56)">
          <text x="0" y="14" fill="#475569" font-size="11.5" font-weight="500">Shotgun</text>
          <rect x="80" y="2" width="450" height="16" rx="4" fill="#fef3c7"/>
          <rect x="80" y="2" width="186" height="16" rx="4" fill="#d97706"/>
          <text x="538" y="14" fill="#0f172a" font-size="11.5" font-weight="600" font-family="JetBrains Mono, monospace">232</text>
          <text x="582" y="14" fill="#94a3b8" font-size="11">18.6%</text>
        </g>

        <!-- Receiver -->
        <g transform="translate(0,84)">
          <text x="0" y="14" fill="#475569" font-size="11.5" font-weight="500">Receiver</text>
          <rect x="80" y="2" width="450" height="16" rx="4" fill="#fef3c7"/>
          <rect x="80" y="2" width="100" height="16" rx="4" fill="#d97706"/>
          <text x="538" y="14" fill="#0f172a" font-size="11.5" font-weight="600" font-family="JetBrains Mono, monospace">124</text>
          <text x="582" y="14" fill="#94a3b8" font-size="11">9.9%</text>
        </g>
      </g>

      <!-- Right side: NFA / type breakdown -->
      <g transform="translate(640,80)">
        <text x="0" y="14" fill="#475569" font-size="11.5" font-weight="500">NFA items (in stock)</text>
        <line x1="0" y1="22" x2="252" y2="22" stroke="#e2e8f0"/>
        <g transform="translate(0,38)" font-size="11.5">
          <text x="0" y="0" fill="#0f172a">Suppressors</text>
          <text x="252" y="0" text-anchor="end" fill="#0f172a" font-weight="600" font-family="JetBrains Mono, monospace">28</text>
        </g>
        <g transform="translate(0,58)" font-size="11.5">
          <text x="0" y="0" fill="#0f172a">SBRs</text>
          <text x="252" y="0" text-anchor="end" fill="#0f172a" font-weight="600" font-family="JetBrains Mono, monospace">14</text>
        </g>
        <g transform="translate(0,78)" font-size="11.5">
          <text x="0" y="0" fill="#0f172a">Machine guns</text>
          <text x="252" y="0" text-anchor="end" fill="#0f172a" font-weight="600" font-family="JetBrains Mono, monospace">7</text>
        </g>
      </g>
    </g>
  </g>
</svg>
