<svg xmlns="http://www.w3.org/2000/svg" viewBox="0 0 1200 800" role="img" aria-label="BoundPro electronic A and D ledger showing acquisitions, dispositions, and status filters" fill="none" font-family="Inter, system-ui, sans-serif">
  <title>BoundPro A&amp;D Ledger</title>
  <defs>
    <filter id="cardShadow2" x="-2%" y="-5%" width="104%" height="115%">
      <feDropShadow dx="0" dy="1" stdDeviation="2" flood-color="#0f172a" flood-opacity="0.06"/>
    </filter>
  </defs>

  <rect width="1200" height="800" fill="#f8fafc"/>

  <!-- Sidebar (same shared chrome) -->
  <rect x="0" y="0" width="216" height="800" fill="#0f1d33"/>

  <g transform="translate(20,20)">
    <rect width="22" height="24" rx="3" fill="#18283f"/>
    <rect width="3" height="24" fill="#d97706"/>
    <rect x="7" y="6" width="11" height="1.4" rx="0.7" fill="#94a3b8"/>
    <rect x="7" y="10" width="8" height="1.4" rx="0.7" fill="#94a3b8"/>
    <rect x="7" y="14" width="11" height="1.4" rx="0.7" fill="#94a3b8"/>
    <text x="32" y="18" fill="#ffffff" font-size="15" font-weight="700" letter-spacing="-0.01em">BoundPro</text>
  </g>

  <g transform="translate(16,64)">
    <rect width="184" height="44" rx="8" fill="#ffffff" fill-opacity="0.06"/>
    <rect x="10" y="10" width="24" height="24" rx="6" fill="#d97706"/>
    <text x="22" y="26" text-anchor="middle" fill="#ffffff" font-size="10" font-weight="700">RA</text>
    <text x="40" y="20" fill="#ffffff" font-size="12" font-weight="600">Ridgeline Arms</text>
    <text x="40" y="34" fill="#94a3b8" font-size="10">3 FFLs · SOT Class III</text>
  </g>

  <text x="24" y="132" fill="#64748b" font-size="10" font-weight="700" letter-spacing="0.08em">WORKSPACE</text>

  <g font-size="13">
    <g transform="translate(8,148)">
      <path d="M22 22 l8 -7 8 7 v8 a1 1 0 0 1 -1 1 h-14 a1 1 0 0 1 -1 -1 z" stroke="#94a3b8" stroke-width="1.5" stroke-linejoin="round"/>
      <text x="46" y="22" fill="#cbd5e1">Dashboard</text>
    </g>
    <!-- Ledger ACTIVE -->
    <g transform="translate(8,186)">
      <rect width="200" height="34" rx="8" fill="#ffffff" fill-opacity="0.09"/>
      <rect width="3" height="34" rx="1.5" fill="#d97706"/>
      <path d="M22 16 h12 a1 1 0 0 1 1 1 v12 a1 1 0 0 1 -1 1 h-12 a1 1 0 0 1 -1 -1 v-12 a1 1 0 0 1 1 -1 z M25 20 h7 M25 23 h7 M25 26 h5" stroke="#ffffff" stroke-width="1.5" stroke-linecap="round"/>
      <text x="46" y="22" fill="#ffffff" font-weight="600">A&amp;D Ledger</text>
      <text x="186" y="22" fill="#94a3b8" font-size="11" text-anchor="end">1,247</text>
    </g>
    <g transform="translate(8,220)">
      <path d="M22 16 h10 l3 3 v11 a1 1 0 0 1 -1 1 h-12 a1 1 0 0 1 -1 -1 v-13 a1 1 0 0 1 1 -1 z M25 22 h7 M25 25 h7 M25 28 h5" stroke="#94a3b8" stroke-width="1.4" stroke-linecap="round"/>
      <text x="46" y="22" fill="#cbd5e1">Form 4473s</text>
      <rect x="160" y="11" width="32" height="18" rx="6" fill="#d97706"/>
      <text x="176" y="23.5" fill="#ffffff" font-size="10.5" font-weight="700" text-anchor="middle">3 NEW</text>
    </g>
    <g transform="translate(8,254)">
      <path d="M22 19 h13 m-3 -3 l3 3 -3 3 M35 27 h-13 m3 -3 l-3 3 3 3" stroke="#94a3b8" stroke-width="1.4" stroke-linecap="round"/>
      <text x="46" y="22" fill="#cbd5e1">Transfers</text>
    </g>
    <g transform="translate(8,288)">
      <path d="M28 14 l8 4 v6 c0 4 -3 7 -8 8 -5 -1 -8 -4 -8 -8 v-6 z" stroke="#94a3b8" stroke-width="1.4" stroke-linejoin="round"/>
      <text x="46" y="22" fill="#cbd5e1">NFA Registry</text>
    </g>
    <g transform="translate(8,322)">
      <path d="M22 22 a6 6 0 1 0 12 0 a6 6 0 1 0 -12 0 M28 18 v8 M25 21 h6" stroke="#94a3b8" stroke-width="1.4"/>
      <text x="46" y="22" fill="#cbd5e1">Pawn</text>
    </g>
    <g transform="translate(8,356)">
      <path d="M28 14 l8 3 v7 c0 5 -4 8 -8 9 -4 -1 -8 -4 -8 -9 v-7 z M25 22 l3 3 5 -6" stroke="#94a3b8" stroke-width="1.4" stroke-linejoin="round"/>
      <text x="46" y="22" fill="#cbd5e1">Compliance</text>
      <circle cx="180" cy="20" r="4" fill="#e11d48"/>
      <text x="180" y="23" fill="#ffffff" font-size="9" font-weight="700" text-anchor="middle">1</text>
    </g>
    <g transform="translate(8,390)">
      <path d="M22 28 v-6 M27 28 v-10 M32 28 v-7 M37 28 v-12" stroke="#94a3b8" stroke-width="1.6" stroke-linecap="round"/>
      <text x="46" y="22" fill="#cbd5e1">Reports</text>
    </g>
    <g transform="translate(8,424)">
      <path d="M22 18 h14 M22 22 h14 M22 26 h10" stroke="#94a3b8" stroke-width="1.4" stroke-linecap="round"/>
      <text x="46" y="22" fill="#cbd5e1">Audit Log</text>
    </g>
  </g>

  <!-- Top bar -->
  <rect x="216" y="0" width="984" height="56" fill="#ffffff"/>
  <line x1="216" y1="56" x2="1200" y2="56" stroke="#e2e8f0"/>
  <text x="248" y="26" fill="#0f172a" font-size="14" font-weight="600">A&amp;D Ledger</text>
  <text x="248" y="42" fill="#64748b" font-size="11.5">Books : Ridgeline Arms  Main FFL</text>

  <g transform="translate(640,14)">
    <rect width="280" height="32" rx="8" fill="#f1f5f9"/>
    <path d="M14 16 a4 4 0 1 0 8 0 a4 4 0 1 0 -8 0 M21 23 l4 4" stroke="#64748b" stroke-width="1.4" fill="none" stroke-linecap="round"/>
    <text x="34" y="20" fill="#94a3b8" font-size="12">Search by serial, manufacturer&#8230;</text>
  </g>

  <g transform="translate(940,14)">
    <rect width="36" height="32" rx="8" fill="#f1f5f9"/>
    <path d="M14 26 a4 4 0 0 0 8 0 M18 14 v9" stroke="#475569" stroke-width="1.4" stroke-linecap="round" fill="none"/>
  </g>
  <g transform="translate(984,14)">
    <rect width="158" height="32" rx="8" fill="#0a1628"/>
    <path d="M16 16 v8 M12 20 h8" stroke="#ffffff" stroke-width="1.6" stroke-linecap="round"/>
    <text x="32" y="20" fill="#ffffff" font-size="12" font-weight="600">New acquisition</text>
  </g>

  <!-- ============ Main ============ -->
  <g transform="translate(248,80)">

    <!-- Header -->
    <text x="0" y="22" fill="#0f172a" font-size="22" font-weight="700" letter-spacing="-0.02em">A&amp;D Ledger</text>
    <text x="0" y="44" fill="#64748b" font-size="13">Acquisition &amp; Disposition record · columns and structure match ATF Form 4473 / 27 CFR § 478.125 exactly.</text>

    <!-- Action bar (pill + counts + buttons) -->
    <g transform="translate(0,60)">
      <rect width="62" height="22" rx="6" fill="#ecfdf5"/>
      <text x="31" y="15.5" text-anchor="middle" fill="#047857" font-size="10.5" font-weight="700">Ï LIVE</text>
      <text x="74" y="16" fill="#475569" font-size="11.5" font-family="JetBrains Mono, monospace">1,247 entries · 18 in the last 7 days</text>

      <!-- Right side actions -->
      <g transform="translate(620,0)">
        <rect width="106" height="26" rx="6" fill="#ffffff" stroke="#cbd5e1"/>
        <path d="M14 17 h6 m-3 -3 v6 M14 21 h6" stroke="#475569" stroke-width="1.4" stroke-linecap="round"/>
        <text x="32" y="18" fill="#0f172a" font-size="12" font-weight="600">Batch intake</text>
      </g>
      <g transform="translate(732,0)">
        <rect width="86" height="26" rx="6" fill="#ffffff" stroke="#cbd5e1"/>
        <path d="M14 13 h8 v8 h-8 z M14 13 v-2 h8 v2" stroke="#475569" stroke-width="1.4"/>
        <text x="30" y="18" fill="#0f172a" font-size="12" font-weight="600">Print PDF</text>
      </g>
      <g transform="translate(824,0)">
        <rect width="88" height="26" rx="6" fill="#ffffff" stroke="#cbd5e1"/>
        <path d="M18 13 v8 m-3 -3 l3 3 3 -3 M14 23 h8" stroke="#475569" stroke-width="1.4" stroke-linecap="round"/>
        <text x="32" y="18" fill="#0f172a" font-size="12" font-weight="600">Export CSV</text>
      </g>
    </g>

    <!-- Saved filters -->
    <g transform="translate(0,98)">
      <rect width="124" height="28" rx="6" fill="#0a1628"/>
      <text x="14" y="18" fill="#ffffff" font-size="11.5" font-weight="600"> All NFA in stock</text>
      <text x="118" y="18" fill="#cbd5e1" font-size="11" text-anchor="end">×</text>

      <g transform="translate(132,0)">
        <rect width="118" height="28" rx="6" fill="#ffffff" stroke="#cbd5e1"/>
        <text x="14" y="18" fill="#475569" font-size="11.5" font-weight="500">Q1 dispositions</text>
      </g>
      <g transform="translate(258,0)">
        <rect width="138" height="28" rx="6" fill="#ffffff" stroke="#cbd5e1"/>
        <text x="14" y="18" fill="#475569" font-size="11.5" font-weight="500">Inbound from RSR Group</text>
      </g>
      <g transform="translate(404,0)">
        <text x="0" y="18" fill="#94a3b8" font-size="11.5">+ Save current filter</text>
      </g>
    </g>

    <!-- Status tabs -->
    <g transform="translate(0,144)" font-size="12.5">
      <text x="0" y="14" fill="#0f172a" font-weight="700">All</text>
      <line x1="-6" y1="22" x2="22" y2="22" stroke="#0a1628" stroke-width="2"/>
      <text x="46" y="14" fill="#64748b">In stock</text>
      <text x="116" y="14" fill="#64748b">Disposed</text>
      <text x="190" y="14" fill="#64748b">Lost</text>
      <text x="232" y="14" fill="#64748b">Stolen</text>
    </g>
    <line x1="0" y1="166" x2="912" y2="166" stroke="#e2e8f0"/>

    <!-- Table -->
    <g transform="translate(0,180)">
      <rect width="912" height="416" rx="10" fill="#ffffff" stroke="#e2e8f0" filter="url(#cardShadow2)"/>

      <!-- Group header -->
      <rect width="912" height="32" rx="10" fill="#f8fafc"/>
      <rect y="22" width="912" height="10" fill="#f8fafc"/>
      <line x1="0" y1="32" x2="912" y2="32" stroke="#e2e8f0"/>
      <line x1="56" y1="0" x2="56" y2="64" stroke="#e2e8f0"/>
      <line x1="586" y1="0" x2="586" y2="64" stroke="#e2e8f0"/>
      <line x1="722" y1="0" x2="722" y2="64" stroke="#e2e8f0"/>

      <text x="28" y="20" text-anchor="middle" fill="#475569" font-size="9.5" font-weight="700" letter-spacing="0.08em">LINE</text>
      <text x="320" y="20" text-anchor="middle" fill="#475569" font-size="9.5" font-weight="700" letter-spacing="0.08em">DESCRIPTION OF FIREARM</text>
      <text x="654" y="20" text-anchor="middle" fill="#475569" font-size="9.5" font-weight="700" letter-spacing="0.08em">RECEIPT</text>
      <text x="817" y="20" text-anchor="middle" fill="#475569" font-size="9.5" font-weight="700" letter-spacing="0.08em">DISPOSITION</text>

      <!-- sub headers -->
      <line x1="0" y1="64" x2="912" y2="64" stroke="#e2e8f0"/>
      <g font-size="9.5" font-weight="700" fill="#64748b" letter-spacing="0.04em">
        <text x="80" y="52">MANUFACTURER</text>
        <text x="220" y="52">MODEL</text>
        <text x="350" y="52">SERIAL</text>
        <text x="450" y="52">TYPE</text>
        <text x="510" y="52">CALIBER</text>
        <text x="600" y="52">DATE</text>
        <text x="660" y="52">SOURCE</text>
        <text x="736" y="52">DATE</text>
        <text x="800" y="52">TRANSFEREE</text>
      </g>

      <!-- ROW 1 -->
      <g transform="translate(0,64)">
        <text x="28" y="22" text-anchor="middle" fill="#94a3b8" font-size="10.5" font-family="JetBrains Mono, monospace">1247</text>
        <text x="80" y="22" fill="#0f172a" font-size="11.5" font-weight="600">Glock</text>
        <text x="220" y="22" fill="#0f172a" font-size="11.5">19 Gen5</text>
        <text x="350" y="22" fill="#475569" font-size="11" font-family="JetBrains Mono, monospace">BPSE423</text>
        <text x="450" y="22" fill="#64748b" font-size="11">pistol</text>
        <text x="510" y="22" fill="#475569" font-size="11" font-family="JetBrains Mono, monospace">9mm</text>
        <text x="600" y="22" fill="#475569" font-size="11" font-family="JetBrains Mono, monospace">03/02/26</text>
        <text x="660" y="20" fill="#0f172a" font-size="11" font-weight="500">Lipsey's Inc.</text>
        <text x="660" y="32" fill="#94a3b8" font-size="10" font-family="JetBrains Mono, monospace">FFL 1-22-345-67-1H-22345</text>
        <g transform="translate(736,12)">
          <rect width="56" height="20" rx="5" fill="#ecfdf5"/>
          <text x="28" y="14.5" text-anchor="middle" fill="#047857" font-size="10" font-weight="600">In stock</text>
        </g>
        <line x1="0" y1="44" x2="912" y2="44" stroke="#f1f5f9"/>
      </g>

      <!-- ROW 2 -->
      <g transform="translate(0,108)">
        <text x="28" y="22" text-anchor="middle" fill="#94a3b8" font-size="10.5" font-family="JetBrains Mono, monospace">1246</text>
        <text x="80" y="20" fill="#0f172a" font-size="11.5" font-weight="600">SilencerCo</text>
        <g transform="translate(140,8)">
          <rect width="28" height="14" rx="3" fill="#fef3c7"/>
          <text x="14" y="11" text-anchor="middle" fill="#92400e" font-size="9" font-weight="700">NFA</text>
        </g>
        <text x="220" y="22" fill="#0f172a" font-size="11.5">Omega 36M</text>
        <text x="350" y="22" fill="#475569" font-size="11" font-family="JetBrains Mono, monospace">OM36M-7194</text>
        <text x="450" y="22" fill="#64748b" font-size="11">silencer</text>
        <text x="510" y="22" fill="#475569" font-size="11" font-family="JetBrains Mono, monospace">.36 cal</text>
        <text x="600" y="22" fill="#475569" font-size="11" font-family="JetBrains Mono, monospace">02/28/26</text>
        <text x="660" y="20" fill="#0f172a" font-size="11" font-weight="500">SilencerCo</text>
        <text x="660" y="32" fill="#94a3b8" font-size="10" font-family="JetBrains Mono, monospace">FFL 5-87-001-07-2K-77531</text>
        <g transform="translate(736,12)">
          <rect width="56" height="20" rx="5" fill="#ecfdf5"/>
          <text x="28" y="14.5" text-anchor="middle" fill="#047857" font-size="10" font-weight="600">In stock</text>
        </g>
        <line x1="0" y1="44" x2="912" y2="44" stroke="#f1f5f9"/>
      </g>

      <!-- ROW 3 -->
      <g transform="translate(0,152)">
        <text x="28" y="22" text-anchor="middle" fill="#94a3b8" font-size="10.5" font-family="JetBrains Mono, monospace">1245</text>
        <text x="80" y="22" fill="#0f172a" font-size="11.5" font-weight="600">Daniel Defense</text>
        <text x="220" y="22" fill="#0f172a" font-size="11.5">DDM4 V7</text>
        <text x="350" y="22" fill="#475569" font-size="11" font-family="JetBrains Mono, monospace">DDM4-118872</text>
        <text x="450" y="22" fill="#64748b" font-size="11">rifle</text>
        <text x="510" y="22" fill="#475569" font-size="11" font-family="JetBrains Mono, monospace">5.56 NATO</text>
        <text x="600" y="22" fill="#475569" font-size="11" font-family="JetBrains Mono, monospace">03/01/26</text>
        <text x="660" y="20" fill="#0f172a" font-size="11" font-weight="500">Daniel Defense</text>
        <text x="660" y="32" fill="#94a3b8" font-size="10" font-family="JetBrains Mono, monospace">FFL 5-58-097-07-7B-04416</text>
        <g transform="translate(736,12)">
          <rect width="56" height="20" rx="5" fill="#ecfdf5"/>
          <text x="28" y="14.5" text-anchor="middle" fill="#047857" font-size="10" font-weight="600">In stock</text>
        </g>
        <line x1="0" y1="44" x2="912" y2="44" stroke="#f1f5f9"/>
      </g>

      <!-- ROW 4 (disposed) -->
      <g transform="translate(0,196)">
        <text x="28" y="22" text-anchor="middle" fill="#94a3b8" font-size="10.5" font-family="JetBrains Mono, monospace">1244</text>
        <text x="80" y="22" fill="#0f172a" font-size="11.5" font-weight="600">Sig Sauer</text>
        <text x="220" y="22" fill="#0f172a" font-size="11.5">P365 XL</text>
        <text x="350" y="22" fill="#475569" font-size="11" font-family="JetBrains Mono, monospace">66B-298401</text>
        <text x="450" y="22" fill="#64748b" font-size="11">pistol</text>
        <text x="510" y="22" fill="#475569" font-size="11" font-family="JetBrains Mono, monospace">9mm</text>
        <text x="600" y="22" fill="#475569" font-size="11" font-family="JetBrains Mono, monospace">02/18/26</text>
        <text x="660" y="20" fill="#0f172a" font-size="11" font-weight="500">Davidson's</text>
        <text x="660" y="32" fill="#94a3b8" font-size="10" font-family="JetBrains Mono, monospace">FFL 5-86-027-07-3D-09142</text>
        <text x="736" y="20" fill="#475569" font-size="11" font-family="JetBrains Mono, monospace">03/01/26</text>
        <text x="800" y="20" fill="#0f172a" font-size="11" font-weight="500">Mark Reyes</text>
        <text x="800" y="32" fill="#94a3b8" font-size="10" font-family="JetBrains Mono, monospace">4473 #BPSE-00423</text>
        <line x1="0" y1="44" x2="912" y2="44" stroke="#f1f5f9"/>
      </g>

      <!-- ROW 5 (pawn in stock) -->
      <g transform="translate(0,240)">
        <text x="28" y="22" text-anchor="middle" fill="#94a3b8" font-size="10.5" font-family="JetBrains Mono, monospace">1243</text>
        <text x="80" y="20" fill="#0f172a" font-size="11.5" font-weight="600">Beretta</text>
        <g transform="translate(120,8)">
          <rect width="34" height="14" rx="3" fill="#dbeafe"/>
          <text x="17" y="11" text-anchor="middle" fill="#1e40af" font-size="9" font-weight="700">PAWN</text>
        </g>
        <text x="220" y="22" fill="#0f172a" font-size="11.5">92FS</text>
        <text x="350" y="22" fill="#475569" font-size="11" font-family="JetBrains Mono, monospace">L94782Z</text>
        <text x="450" y="22" fill="#64748b" font-size="11">pistol</text>
        <text x="510" y="22" fill="#475569" font-size="11" font-family="JetBrains Mono, monospace">9mm</text>
        <text x="600" y="22" fill="#475569" font-size="11" font-family="JetBrains Mono, monospace">02/26/26</text>
        <text x="660" y="20" fill="#0f172a" font-size="11" font-weight="500">D. Hartley</text>
        <text x="660" y="32" fill="#94a3b8" font-size="10">Pawn ticket #PT-3389</text>
        <g transform="translate(736,12)">
          <rect width="56" height="20" rx="5" fill="#ecfdf5"/>
          <text x="28" y="14.5" text-anchor="middle" fill="#047857" font-size="10" font-weight="600">In stock</text>
        </g>
        <line x1="0" y1="44" x2="912" y2="44" stroke="#f1f5f9"/>
      </g>

      <!-- ROW 6 -->
      <g transform="translate(0,284)">
        <text x="28" y="22" text-anchor="middle" fill="#94a3b8" font-size="10.5" font-family="JetBrains Mono, monospace">1242</text>
        <text x="80" y="22" fill="#0f172a" font-size="11.5" font-weight="600">Smith &amp; Wesson</text>
        <text x="220" y="22" fill="#0f172a" font-size="11.5">M&amp;P 15 Sport III</text>
        <text x="350" y="22" fill="#475569" font-size="11" font-family="JetBrains Mono, monospace">TS81842</text>
        <text x="450" y="22" fill="#64748b" font-size="11">rifle</text>
        <text x="510" y="22" fill="#475569" font-size="11" font-family="JetBrains Mono, monospace">5.56 NATO</text>
        <text x="600" y="22" fill="#475569" font-size="11" font-family="JetBrains Mono, monospace">02/27/26</text>
        <text x="660" y="20" fill="#0f172a" font-size="11" font-weight="500">RSR Group</text>
        <text x="660" y="32" fill="#94a3b8" font-size="10" font-family="JetBrains Mono, monospace">FFL 1-59-097-07-3J-26601</text>
        <g transform="translate(736,12)">
          <rect width="56" height="20" rx="5" fill="#ecfdf5"/>
          <text x="28" y="14.5" text-anchor="middle" fill="#047857" font-size="10" font-weight="600">In stock</text>
        </g>
        <line x1="0" y1="44" x2="912" y2="44" stroke="#f1f5f9"/>
      </g>

      <!-- ROW 7 (disposed to FFL) -->
      <g transform="translate(0,328)">
        <text x="28" y="22" text-anchor="middle" fill="#94a3b8" font-size="10.5" font-family="JetBrains Mono, monospace">1241</text>
        <text x="80" y="22" fill="#0f172a" font-size="11.5" font-weight="600">Ruger</text>
        <text x="220" y="22" fill="#0f172a" font-size="11.5">10/22 Carbine</text>
        <text x="350" y="22" fill="#475569" font-size="11" font-family="JetBrains Mono, monospace">0019-83142</text>
        <text x="450" y="22" fill="#64748b" font-size="11">rifle</text>
        <text x="510" y="22" fill="#475569" font-size="11" font-family="JetBrains Mono, monospace">.22 LR</text>
        <text x="600" y="22" fill="#475569" font-size="11" font-family="JetBrains Mono, monospace">02/12/26</text>
        <text x="660" y="20" fill="#0f172a" font-size="11" font-weight="500">Sturm Ruger</text>
        <text x="660" y="32" fill="#94a3b8" font-size="10" font-family="JetBrains Mono, monospace">FFL 6-22-097-07-2J-12233</text>
        <text x="736" y="20" fill="#475569" font-size="11" font-family="JetBrains Mono, monospace">02/24/26</text>
        <text x="800" y="20" fill="#0f172a" font-size="11" font-weight="500">Cabela's #112</text>
        <text x="800" y="32" fill="#94a3b8" font-size="10" font-family="JetBrains Mono, monospace">FFL 5-39-097-02-2A-66721</text>
        <line x1="0" y1="44" x2="912" y2="44" stroke="#f1f5f9"/>
      </g>

      <!-- Footer -->
      <g transform="translate(0,372)">
        <text x="20" y="28" fill="#64748b" font-size="11.5">Showing <tspan fill="#0f172a" font-weight="600" font-family="JetBrains Mono, monospace">7</tspan> of <tspan fill="#0f172a" font-weight="600" font-family="JetBrains Mono, monospace">1,247</tspan> entries</text>
        <text x="892" y="28" text-anchor="end" fill="#94a3b8" font-size="11" font-family="JetBrains Mono, monospace">Newest at top · Line numbers preserved</text>
      </g>

    </g>
  </g>
</svg>
